<svg xmlns="http://www.w3.org/2000/svg" viewBox="0 0 256 256" xml:space="preserve">
  <g transform="translate(1.4065934065934016 1.4065934065934016) scale(2.81 2.81)">
    <path d="M 0 13.077 V 44.13 c 0 2.526 2.048 4.575 4.575 4.575 h 20.723 c 1.775 0 3.214 1.439 3.214 3.214 v 0 c 0 9.88 -8.009 17.889 -17.889 17.889 H 7.016 c -2.034 0 -3.683 1.649 -3.683 3.683 v 4.324 c 0 2.034 1.649 3.683 3.683 3.683 h 3.606 c 16.337 0 29.58 -13.243 29.58 -29.58 v -3.214 V 38.027 v -24.95 c 0 -2.526 -2.048 -4.575 -4.575 -4.575 H 4.575 C 2.048 8.502 0 10.55 0 13.077 z"/>
    <path d="M 49.798 13.077 V 44.13 c 0 2.526 2.048 4.575 4.575 4.575 h 20.723 c 1.775 0 3.214 1.439 3.214 3.214 v 0 c 0 9.88 -8.009 17.889 -17.889 17.889 h -3.606 c -2.034 0 -3.683 1.649 -3.683 3.683 v 4.324 c 0 2.034 1.649 3.683 3.683 3.683 h 3.606 c 16.337 0 29.58 -13.243 29.58 -29.58 v -3.214 V 38.027 v -24.95 c 0 -2.526 -2.048 -4.575 -4.575 -4.575 H 54.372 C 51.846 8.502 49.798 10.55 49.798 13.077 z"/>
  </g>
</svg>