<svg xmlns="http://www.w3.org/2000/svg" width="256" height="256" viewBox="0 0 256 256" xml:space="preserve">
  <g transform="translate(1.4065934065934016 1.4065934065934016) scale(2.81 2.81)">
    <path d="M 11.186 17.202 c -1.469 0 -2.869 0.291 -4.155 0.806 c 1.02 -3.512 2.63 -7.132 4.856 -10.631 c 0.838 -1.316 1.737 -2.546 2.667 -3.717 c -3.605 1.932 -7.186 5.264 -9.985 9.663 c -3.145 4.942 -4.656 10.208 -4.547 14.62 C 0.017 28.092 0 28.238 0 28.388 c 0 2.094 0.586 4.047 1.587 5.722 c 0.001 0.001 0.002 0.002 0.002 0.004 c 1.953 3.266 5.514 5.46 9.597 5.46 c 6.178 0 11.186 -5.008 11.186 -11.186 C 22.373 22.21 17.364 17.202 11.186 17.202 z"/>
    <path d="M 38.729 17.202 c -1.469 0 -2.869 0.291 -4.155 0.806 c 1.02 -3.512 2.63 -7.132 4.856 -10.631 c 0.838 -1.316 1.737 -2.546 2.667 -3.717 c -3.605 1.932 -7.186 5.264 -9.985 9.663 c -3.145 4.942 -4.656 10.208 -4.547 14.62 c -0.006 0.149 -0.022 0.295 -0.022 0.445 c 0 2.094 0.586 4.047 1.587 5.722 c 0.001 0.001 0.002 0.002 0.002 0.004 c 1.953 3.266 5.514 5.46 9.597 5.46 c 6.178 0 11.186 -5.008 11.186 -11.186 C 49.915 22.21 44.907 17.202 38.729 17.202 z"/>
    <path d="M 78.814 72.798 c 1.469 0 2.869 -0.291 4.155 -0.806 c -1.02 3.512 -2.63 7.132 -4.856 10.631 c -0.838 1.316 -1.737 2.546 -2.667 3.717 c 3.605 -1.932 7.186 -5.264 9.985 -9.663 c 3.145 -4.942 4.656 -10.208 4.547 -14.62 C 89.983 61.908 90 61.762 90 61.612 c 0 -2.094 -0.586 -4.047 -1.587 -5.722 c -0.001 -0.001 -0.002 -0.002 -0.002 -0.004 c -1.953 -3.266 -5.514 -5.46 -9.597 -5.46 c -6.178 0 -11.186 5.008 -11.186 11.186 C 67.627 67.79 72.636 72.798 78.814 72.798 z"/>
    <path d="M 51.271 72.798 c 1.469 0 2.869 -0.291 4.155 -0.806 c -1.02 3.512 -2.63 7.132 -4.856 10.631 c -0.838 1.316 -1.737 2.546 -2.667 3.717 c 3.605 -1.932 7.186 -5.264 9.985 -9.663 c 3.145 -4.942 4.656 -10.208 4.547 -14.62 c 0.006 -0.149 0.022 -0.295 0.022 -0.445 c 0 -2.094 -0.586 -4.047 -1.587 -5.722 c -0.001 -0.001 -0.002 -0.002 -0.002 -0.004 c -1.953 -3.266 -5.514 -5.46 -9.597 -5.46 c -6.178 0 -11.186 5.008 -11.186 11.186 C 40.085 67.79 45.093 72.798 51.271 72.798 z"/>
  </g>
</svg>